<?xml version="1.0" standalone="no"?>
<!DOCTYPE svg PUBLIC "-//W3C//DTD SVG 20010904//EN"
 "http://www.w3.org/TR/2001/REC-SVG-20010904/DTD/svg10.dtd">
<svg version="1.0" xmlns="http://www.w3.org/2000/svg"
 width="167.000000pt" height="292.000000pt" viewBox="0 0 167.000000 292.000000"
 preserveAspectRatio="xMidYMid meet">

<g transform="translate(0.000000,292.000000) scale(0.100000,-0.100000)"
fill="#000000" stroke="none">
<path d="M904 2506 c-17 -8 -41 -31 -54 -52 -13 -22 -25 -41 -27 -43 -2 -3
-13 6 -25 18 -29 32 -77 50 -117 44 -50 -8 -107 -69 -115 -125 -12 -78 -25
-456 -26 -711 0 -177 -3 -248 -11 -245 -6 2 -41 40 -78 83 -85 102 -153 145
-229 145 -84 0 -131 -35 -132 -98 0 -45 17 -82 91 -194 35 -53 93 -143 129
-200 76 -121 160 -233 227 -303 l48 -50 3 -227 3 -228 413 0 414 0 7 36 c3 20
3 98 0 173 -7 147 -1 204 38 381 47 215 54 270 93 767 28 355 12 458 -76 498
-37 17 -43 17 -80 2 l-40 -15 0 61 c0 81 -15 130 -51 171 -37 43 -85 54 -135
30 -20 -9 -41 -25 -47 -36 -17 -26 -24 -23 -31 13 -9 44 -44 89 -82 105 -41
17 -70 17 -110 0z m98 -57 c48 -26 52 -60 55 -419 3 -336 6 -385 22 -376 14 9
19 55 36 291 18 265 30 356 50 395 30 57 104 48 125 -16 14 -42 15 -129 6
-454 -7 -248 -3 -310 19 -288 9 9 22 121 35 308 12 157 26 212 61 233 28 17
65 0 84 -39 15 -31 16 -60 12 -217 -10 -368 -47 -724 -98 -952 -12 -49 -25
-108 -30 -130 -4 -22 -8 -122 -9 -222 l0 -183 -362 0 -363 0 -3 203 c-3 164
-7 207 -20 230 -9 15 -20 27 -23 27 -15 0 -167 199 -239 313 -41 65 -102 159
-136 210 -94 142 -101 189 -30 202 73 14 128 -21 227 -141 88 -107 151 -135
163 -71 3 18 11 231 16 472 6 242 14 464 19 494 17 117 124 138 161 31 7 -22
14 -152 19 -358 7 -321 13 -364 42 -335 6 6 13 136 19 355 9 360 15 403 57
436 21 15 58 16 85 1z"/>
</g>
</svg>
