<?xml version="1.0" standalone="no"?>
<!DOCTYPE svg PUBLIC "-//W3C//DTD SVG 20010904//EN"
 "http://www.w3.org/TR/2001/REC-SVG-20010904/DTD/svg10.dtd">
<svg version="1.0" xmlns="http://www.w3.org/2000/svg"
 width="144.000000pt" height="261.000000pt" viewBox="0 0 144.000000 261.000000"
 preserveAspectRatio="xMidYMid meet">

<g transform="translate(0.000000,261.000000) scale(0.100000,-0.100000)"
fill="#000000" stroke="none">
<path d="M578 1871 c-15 -5 -36 -16 -48 -24 -19 -13 -25 -12 -58 5 -52 27
-129 21 -175 -15 -58 -44 -81 -106 -86 -222 -3 -95 -5 -101 -33 -134 -54 -62
-72 -115 -76 -231 -6 -161 32 -259 168 -425 96 -118 93 -108 98 -276 l5 -149
411 2 411 3 3 105 c6 247 22 439 48 565 20 98 27 161 27 255 1 134 -10 200
-49 322 -21 63 -33 84 -65 112 -39 33 -115 56 -138 42 -5 -4 -22 4 -38 17 -15
13 -38 29 -50 36 -33 17 -120 14 -154 -6 -27 -16 -31 -16 -58 0 -35 21 -106
30 -143 18z m-144 -65 c18 -8 42 -25 52 -39 l19 -25 30 35 c51 58 148 56 195
-5 l20 -24 28 30 c16 17 41 34 56 38 42 10 105 -13 124 -45 14 -26 20 -28 78
-27 53 1 66 -3 88 -23 87 -81 121 -400 68 -636 -26 -114 -40 -257 -47 -459 -2
-88 -6 -161 -8 -162 -2 -2 -163 -4 -358 -4 l-354 -1 -5 128 c-3 82 -10 137
-19 153 -8 14 -44 63 -81 110 -79 101 -136 192 -150 240 -13 45 -13 225 0 272
6 20 30 58 54 85 l44 49 4 115 c3 109 5 118 32 153 42 55 74 65 130 42z"/>
</g>
</svg>
