<?xml version="1.0" standalone="no"?>
<!DOCTYPE svg PUBLIC "-//W3C//DTD SVG 20010904//EN"
 "http://www.w3.org/TR/2001/REC-SVG-20010904/DTD/svg10.dtd">
<svg version="1.0" xmlns="http://www.w3.org/2000/svg"
 width="145.000000pt" height="254.000000pt" viewBox="0 0 145.000000 254.000000"
 preserveAspectRatio="xMidYMid meet">

<g transform="translate(0.000000,254.000000) scale(0.100000,-0.100000)"
fill="#000000" stroke="none">
<path d="M826 2310 c-89 -27 -114 -109 -161 -530 -9 -80 -18 -146 -20 -148 -5
-5 -12 36 -45 245 -46 296 -62 348 -120 378 -67 35 -142 11 -180 -58 -33 -58
-27 -142 45 -676 23 -173 24 -169 -44 -218 -107 -76 -151 -211 -117 -358 21
-86 74 -197 122 -250 51 -58 54 -71 44 -197 -5 -62 -12 -155 -15 -206 l-7 -92
414 2 413 3 8 145 c8 146 15 181 77 355 53 151 92 373 94 525 1 95 -2 121 -18
150 -32 58 -75 90 -124 90 -27 0 -36 6 -50 33 -9 17 -36 51 -60 75 -36 35 -49
42 -82 42 -48 0 -46 -21 -20 225 27 250 28 355 3 396 -34 59 -97 87 -157 69z
m94 -75 c33 -35 35 -90 10 -330 -12 -115 -24 -248 -27 -294 l-6 -85 36 23 c26
16 45 21 66 16 44 -9 101 -78 101 -122 0 -35 14 -44 48 -32 43 15 85 -2 112
-46 51 -82 -2 -469 -99 -719 -40 -103 -51 -167 -51 -288 l0 -98 -360 0 -360 0
8 122 c4 68 7 159 7 204 0 80 0 81 -41 127 -52 58 -108 165 -124 236 -7 30
-10 83 -8 122 7 91 41 148 127 208 l62 43 -6 67 c-4 36 -20 167 -36 291 -48
377 -53 446 -32 488 23 46 70 63 107 39 35 -23 51 -83 91 -334 52 -331 74
-423 105 -423 29 0 38 26 50 146 23 224 60 501 75 559 25 98 93 136 145 80z"/>
</g>
</svg>
